# xmcd CD database file
#
# Track frame offsets:
#	150
#	12767
#	26997
#	39577
#	50260
#	63292
#	76485
#	91527
#	106262
#	119630
#	132310
#	144782
#	155760
#	168245
#	181082
#	191880
#	202897
#	214190
#	225095
#	234655
#	246580
#	257390
#	268942
#	281925
#	293807
#	306437
#	317575
#
# Disc length: 4404 seconds
#
# Revision: 1
# Processed by: cddbd v1.5.2PL0 Copyright (c) Steve Scherf et al.
# Submitted via: CDex 1.51
#
DISCID=8011321b
DTITLE=Jimmy Reed - Best Blues Masters Vol. 1
DYEAR=1900
DGENRE=Blues
TTITLE0=High And Lonesome
TTITLE1=You Don't Have To Go
TTITLE2=I Don't Go For That
TTITLE3=Ain't That Lovin' You Baby
TTITLE4=Can't Stand To See You Go
TTITLE5=You Got Me Dizzy
TTITLE6=Honey,Where You Going
TTITLE7=Little Rain
TTITLE8=The Sun Is Shining
TTITLE9=Honest I Do
TTITLE10=A String To Your Heart
TTITLE11=Down In Virginia
TTITLE12=I'm Gonna Get My Baby
TTITLE13=Caress Me Baby
TTITLE14=Going To New York
TTITLE15=Take Out Some Insurance
TTITLE16=You Know I Love You
TTITLE17=Baby What You Want Me To Do
TTITLE18=Goin' By The River Pt.1
TTITLE19=Hush Hush
TTITLE20=Found Love
TTITLE21=Come Love
TTITLE22=Big Boss Man
TTITLE23=Close Together
TTITLE24=Bright Lights,Big City
TTITLE25=Good Lover
TTITLE26=Shame Shame Shame
EXTD=
EXTT0=
EXTT1=
EXTT2=
EXTT3=
EXTT4=
EXTT5=
EXTT6=
EXTT7=
EXTT8=
EXTT9=
EXTT10=
EXTT11=
EXTT12=
EXTT13=
EXTT14=
EXTT15=
EXTT16=
EXTT17=
EXTT18=
EXTT19=
EXTT20=
EXTT21=
EXTT22=
EXTT23=
EXTT24=
EXTT25=
EXTT26=
PLAYORDER=
